<svg xmlns="http://www.w3.org/2000/svg" width="80" height="15" fill="none"><path fill="#D5CDC5" fill-rule="evenodd" d="M72 12.055 76.944 15l-1.312-5.55L80 5.716l-5.752-.482L72 0l-2.248 5.234L64 5.716l4.368 3.734L67.056 15 72 12.055Z" clip-rule="evenodd"/><path fill="#FF9017" fill-rule="evenodd" d="M56 12.055 60.944 15l-1.312-5.55L64 5.716l-5.752-.482L56 0l-2.248 5.234L48 5.716l4.368 3.734L51.056 15 56 12.055ZM40 12.055 44.944 15l-1.312-5.55L48 5.716l-5.752-.482L40 0l-2.248 5.234L32 5.716l4.368 3.734L35.056 15 40 12.055ZM24 12.055 28.944 15l-1.312-5.55L32 5.716l-5.752-.482L24 0l-2.248 5.234L16 5.716l4.368 3.734L19.056 15 24 12.055ZM8 12.055 12.944 15l-1.312-5.55L16 5.716l-5.752-.482L8 0 5.752 5.234 0 5.716 4.368 9.45 3.056 15 8 12.055Z" clip-rule="evenodd"/></svg>