
<svg xmlns="http://www.w3.org/2000/svg" width="200" height="32" fill="none"><path fill="#BDC4CD" fill-rule="evenodd" d="M19.895 10.99h-1.412c-1.107 0-1.321.527-1.321 1.298v1.703h2.64l-.344 2.667h-2.296V23.5h-2.754v-6.842h-2.302v-2.667h2.302v-1.966c0-2.283 1.394-3.525 3.43-3.525.974 0 1.813.072 2.057.105v2.385ZM16 1C7.716 1 1 7.715 1 16c0 8.284 6.716 15 15 15 8.285 0 15-6.716 15-15 0-8.285-6.715-15-15-15ZM63.964 12.94c.006.133.01.265.01.4 0 4.065-3.096 8.755-8.756 8.755a8.714 8.714 0 0 1-4.718-1.382c.24.028.486.042.734.042a6.172 6.172 0 0 0 3.822-1.317 3.08 3.08 0 0 1-2.875-2.137 3.108 3.108 0 0 0 1.39-.053 3.078 3.078 0 0 1-2.468-3.017v-.04c.414.231.89.37 1.394.386a3.077 3.077 0 0 1-.953-4.11 8.737 8.737 0 0 0 6.344 3.216 3.078 3.078 0 0 1 5.243-2.807 6.158 6.158 0 0 0 1.955-.746 3.092 3.092 0 0 1-1.353 1.703 6.175 6.175 0 0 0 1.767-.485 6.263 6.263 0 0 1-1.536 1.593ZM58 1c-8.285 0-15 6.715-15 15 0 8.284 6.715 15 15 15s15-6.716 15-15c0-8.285-6.715-15-15-15ZM107.5 23.486h-3.108v-4.864c0-1.16-.02-2.651-1.615-2.651-1.617 0-1.864 1.264-1.864 2.569v4.946h-3.105V13.485h2.979v1.367h.044c.414-.786 1.428-1.616 2.941-1.616 3.147 0 3.728 2.071 3.728 4.765v5.485ZM94.304 12.119a1.802 1.802 0 1 1-.003-3.605 1.802 1.802 0 0 1 .003 3.605Zm1.554 11.367h-3.111V13.485h3.111v10ZM100 1c-8.285 0-15 6.715-15 15 0 8.284 6.715 15 15 15s15-6.716 15-15c0-8.285-6.715-15-15-15ZM142.018 18.895a2.881 2.881 0 0 0 2.884-2.878 2.881 2.881 0 0 0-2.884-2.877 2.881 2.881 0 0 0-2.885 2.877 2.881 2.881 0 0 0 2.885 2.878Zm3.321-5.826h2.028a.42.42 0 0 0 .42-.418v-2.024a.42.42 0 0 0-.42-.418h-2.028a.42.42 0 0 0-.42.418v2.024c0 .23.189.418.42.418Zm4.161 8.652c0 .982-.798 1.779-1.783 1.779h-11.434a1.782 1.782 0 0 1-1.783-1.78V10.279c0-.982.799-1.778 1.783-1.778h11.434a1.78 1.78 0 0 1 1.783 1.778v11.443ZM142 1c-8.285 0-15 6.715-15 15 0 8.284 6.715 15 15 15s15-6.716 15-15c0-8.285-6.715-15-15-15Zm4.58 15.017a4.562 4.562 0 0 1-9.125 0c0-.416.056-.82.162-1.204h-1.403v6.523c0 .232.187.42.419.42h10.769a.42.42 0 0 0 .42-.42v-6.523h-1.404c.106.384.162.788.162 1.204ZM191.5 16.566c0 1.214-.15 2.428-.15 2.428s-.146 1.034-.596 1.49c-.57.596-1.21.6-1.503.634-2.099.152-5.251.156-5.251.156s-3.9-.035-5.1-.15c-.334-.062-1.084-.044-1.654-.64-.45-.457-.596-1.49-.596-1.49s-.15-1.214-.15-2.428v-1.138c0-1.214.15-2.427.15-2.427s.146-1.034.596-1.49c.57-.597 1.21-.6 1.503-.634 2.099-.152 5.248-.152 5.248-.152h.006s3.149 0 5.248.152c.293.034.933.037 1.503.634.45.456.596 1.49.596 1.49s.15 1.213.15 2.427v1.138ZM184 1c-8.285 0-15 6.715-15 15 0 8.284 6.715 15 15 15s15-6.716 15-15c0-8.285-6.715-15-15-15Zm-1.549 16.945 4.053-2.1-4.054-2.115.001 4.215Z" clip-rule="evenodd"/></svg>